# AST/ASF file generated using VICON BodyLanguage
# -----------------------------------------------
:version 1.10
:name VICON
:units
  mass 1.0
  length 0.45
  angle deg
:documentation
   .ast/.asf automatically generated from VICON data using
   VICON BodyBuilder and BodyLanguage model FoxedUp or BRILLIANT.MOD
:root
   order TX TY TZ RX RY RZ
   axis XYZ
   position 0 0 0  
   orientation 0 0 0 
:bonedata
  begin
     id 1 
     name lhipjoint
     direction 0.671379 -0.66392 0.329334 
     length 2.38647 
     axis 0 0 0  XYZ
  end
  begin
     id 2 
     name lfemur
     direction 0.34202 -0.939693 0  
     length 6.48179  
     axis 0 0 20  XYZ
    dof rx ry rz
    limits (-160.0 20.0)
           (-70.0 70.0)
           (-60.0 70.0)
  end
  begin
     id 3 
     name ltibia
     direction 0.34202 -0.939693 0   
     length 6.86524   
     axis 0 0 20   XYZ
    dof rx
    limits (-10.0 170.0)
  end
  begin
     id 4 
     name lfoot
     direction 0.204886 -0.562919 0.800715   
     length 1.73031   
     axis -90 7.62852e-016 20   XYZ
    dof rx rz
    limits (-45.0 90.0)
           (-70.0 20.0)
  end
  begin
     id 5 
     name ltoes
     direction 1.53548e-011 -4.21841e-011 1   
     length 0.828161   
     axis -90 7.62852e-016 20   XYZ
    dof rx
    limits (-90.0 20.0)
  end
  begin
     id 6 
     name rhipjoint
     direction -0.662732 -0.670855 0.332775   
     length 2.3618  
     axis 0 0 0  XYZ 
  end
  begin
     id 7 
     name rfemur
     direction -0.34202 -0.939693 0   
     length 6.3025   
     axis 0 0 -20   XYZ
    dof rx ry rz
    limits (-160.0 20.0)
           (-70.0 70.0)
           (-70.0 60.0)
  end
  begin
     id 8 
     name rtibia
     direction -0.34202 -0.939693 0   
     length 6.8732   
     axis 0 0 -20   XYZ
    dof rx
    limits (-10.0 170.0)
 end
 begin
     id 9 
     name rfoot
     direction -0.173856 -0.477665 0.861168   
     length 1.54784  
     axis -90 -7.62852e-016 -20   XYZ
    dof rx rz
    limits (-45.0 90.0)
           (-20.0 70.0)
  end
  begin
     id 10 
     name rtoes
     direction -1.53562e-011 -4.21802e-011 1   
     length 0.759618   
     axis -90 -7.62852e-016 -20   XYZ
    dof rx
    limits (-90.0 20.0)
  end
  begin
     id 11 
     name lowerback
     direction -0.0278357 0.999497 -0.0151789   
     length 1.97203   
     axis 0 0 0   XYZ
    dof rx ry rz
    limits (-20.0 45.0)
           (-30.0 30.0)
           (-30.0 30.0)
  end
  begin
     id 12 
     name upperback
     direction -0.00360622 0.997542 0.0699804   
     length 1.94709   
     axis 0 0 0   XYZ
    dof rx ry rz
    limits (-20.0 45.0)
           (-30.0 30.0)
           (-30.0 30.0)
  end
  begin
     id 13 
     name thorax
     direction 0.00907706 0.997048 0.0762461   
     length 1.95722   
     axis 0 0 0   XYZ
    dof rx ry rz
    limits (-20.0 45.0)
           (-30.0 30.0)
           (-30.0 30.0)
  end
  begin
     id 14 
     name lowerneck
     direction -0.0481835 0.99872 -0.0153927   
     length 1.63078   
     axis 0 0 0   XYZ
    dof rx ry rz
    limits (-20.0 45.0)
           (-30.0 30.0)
           (-30.0 30.0)
  end
  begin
     id 15 
     name upperneck
     direction 0.0859716 0.979226 -0.183644   
     length 1.62591   
     axis 0 0 0   XYZ
    dof rx ry rz
    limits (-20.0 45.0)
           (-30.0 30.0)
           (-30.0 30.0)
  end
  begin
     id 16
     name head
     direction 0.0324821 0.997629 -0.0606773  
     length 1.64811  
     axis 0 0 0   XYZ
    dof rx ry rz
    limits (-20.0 45.0)
           (-30.0 30.0)
           (-30.0 30.0)
  end
  begin
     id 17 
     name lclavicle
     direction 0.939609 0.311019 0.142835  
     length 3.70647  
     axis 0 0 0   XYZ
    dof ry rz
    limits (-20.0 10.0)
           (0.0 20.0)
  end
  begin
     id 18 
     name lhumerus
     direction 1 -4.48963e-011 -1.59838e-027   
     length 4.59207   
     axis 180 -30 -90   XYZ
    dof rx ry rz
    limits (-60.0 90.0)
           (-90.0 90.0)
           (-90.0 90.0)
  end
  begin
     id 19
     name lradius
     direction 1 -4.48957e-011 -1.3483e-026   
     length 2.98109   
     axis 180 -30 -90   XYZ
    dof rx
    limits (-10.0 170.0)
  end
  begin
     id 20
     name lwrist
     direction 1 -4.48954e-011 -3.11579e-026   
     length 1.49055   
     axis 2.00652e-014 90 90   XYZ
    dof ry
    limits (-180.0 0.0)
 end
  begin
     id 21 
     name lhand
     direction 1 -4.4911e-011 -6.23158e-026   
     length 0.480203   
     axis 3.97628e-014 90 90   XYZ
    dof rx rz
    limits (-90.0 90.0)
           (-45.0 45.0)
  end
  begin
     id 22 
     name lfingers
     direction 1 -4.48893e-011 -1.24632e-025   
     length 0.387152   
     axis 7.95256e-014 90 90   XYZ
    dof rx
    limits (0.0 90.0)
  end
  begin
     id 23
     name lthumb
     direction 0.707107 -6.35013e-011 0.707107   
     length 0.555875   
     axis -90 45 2.85299e-015   XYZ
    dof rx rz
    limits (-45.0 45.0)
           (-45.0 45.0)
  end
  begin
     id 24 
     name rclavicle
     direction -0.950396 0.30392 0.0661859   
     length 3.70894  
     axis 0 0 0   XYZ 
    dof ry rz
    limits (-10.0 20.0)
           (-20.0 0.0)
  end
  begin
     id 25 
     name rhumerus
     direction -1 -4.48957e-011 -2.96677e-027  
     length 4.76508   
     axis 180 30 90   XYZ
    dof rx ry rz
    limits (-90.0 60.0)
           (-90.0 90.0)
           (-90.0 90.0)
  end
  begin
     id 26 
     name rradius
     direction -1 -4.48974e-011 -1.44501e-026   
     length 2.78902   
     axis 180 30 90   XYZ
    dof rx
    limits (-10.0 170.0)
  end
  begin
     id 27 
     name rwrist
     direction -1 -4.48978e-011 -3.11579e-026   
     length 1.39451   
     axis 2.00652e-014 -90 -90   XYZ
    dof ry
    limits (-180.0 0.0)
  end
  begin
     id 28
     name rhand
     direction -1 -4.48956e-011 -6.23158e-026   
     length 0.721303   
     axis 3.97628e-014 -90 -90   XYZ
    dof rx rz
    limits (-90.0 90.0)
           (-45.0 45.0)
  end
  begin
     id 29
     name rfingers
     direction -1 -4.4899e-011 -1.24632e-025   
     length 0.581533   
     axis 7.95256e-014 -90 -90   XYZ
    dof rx
    limits (0.0 90.0)
  end
  begin
     id 30
     name rthumb
     direction -0.707107 -6.34911e-011 0.707107   
     length 0.834968   
     axis -90 -45 -2.85299e-015   XYZ
    dof rx rz
    limits (-45.0 45.0)
           (-45.0 45.0)
  end
:hierarchy
  begin
    root lhipjoint rhipjoint lowerback
    lhipjoint lfemur
    lfemur ltibia
    ltibia lfoot
    lfoot ltoes
    rhipjoint rfemur
    rfemur rtibia
    rtibia rfoot
    rfoot rtoes
    lowerback upperback
    upperback thorax
    thorax lowerneck lclavicle rclavicle
    lowerneck upperneck
    upperneck head
    lclavicle lhumerus
    lhumerus lradius
    lradius lwrist
    lwrist lhand lthumb
    lhand lfingers
    rclavicle rhumerus
    rhumerus rradius
    rradius rwrist
    rwrist rhand rthumb
    rhand rfingers
  end

#!OML:ASF I:\salsa\salsa 7_09\Patient 1\Session 1\dancerfemale.ASF
:FULLY-SPECIFIED
:DEGREES
329
root 19.6705 15.7686 1.00046 -193.459 -66.1969 202.762
lowerback 7.32142 0.0153479 8.08648
upperback -6.31173 1.02086 1.77157
thorax -10.8544 -0.118656 -2.77277
lowerneck -5.45863 1.81243 -4.97816
upperneck 9.10964 1.66353 11.2295
head 3.44409 1.10631 4.32271
rclavicle 2.67241e-014 1.78906e-014
rhumerus -47.1003 -9.79759 -57.1367
rradius 86.7322
rwrist 7.78407
rhand -10.2574 85.954
rfingers 7.12502
rthumb 15.7358 56.5737
lclavicle 2.67241e-014 1.78906e-014
lhumerus -16.0812 6.45676 60.8166
lradius 112.588
lwrist 26.9565
lhand 4.43259 47.6419
lfingers 7.12502
lthumb 29.8286 75.2601
rfemur -4.26072 3.07726 28.7718
rtibia 28.6663
rfoot -10.9048 1.02113
rtoes -17.6812
lfemur -39.3251 10.1671 -14.9864
ltibia 55.5387
lfoot -26.2488 5.73069
ltoes -25.2401
330
root 19.6782 15.7561 1.00152 -194.729 -65.3533 204.201
lowerback 7.3581 0.131093 8.04846
upperback -6.43387 1.2248 2.55249
thorax -11.0096 -0.00362432 -1.93427
lowerneck -4.60585 2.06423 -4.59381
upperneck 8.94379 2.05336 10.3556
head 3.23485 1.25159 3.98616
rclavicle -1.71079e-014 -2.52457e-014
rhumerus -46.9048 -9.56093 -58.5892
rradius 86.3054
rwrist 7.74722
rhand -10.3733 86.2351
rfingers 7.12502
rthumb 15.6241 56.8461
lclavicle -1.71079e-014 -2.52457e-014
lhumerus -17.3173 6.46644 60.0021
lradius 112.897
lwrist 26.5385
lhand 5.35322 47.4496
lfingers 7.12502
lthumb 30.7068 74.9065
rfemur -4.38444 1.15409 29.2514
rtibia 28.6812
rfoot -10.8162 2.78396
rtoes -16.2453
lfemur -39.4962 10.0829 -13.9099
ltibia 57.1606
lfoot -25.9234 5.35675
ltoes -27.938
331
root 19.6783 15.7436 1.0068 -195.856 -64.6373 205.356
lowerback 7.55069 0.122901 7.98627
upperback -6.34285 1.26929 3.36987
thorax -11.0399 0.0496493 -1.02075
lowerneck -4.78394 2.2384 -4.62182
upperneck 9.305 2.35055 9.62463
head 3.36016 1.38161 3.78509
rclavicle 1.101e-014 -1.08027e-014
rhumerus -46.1695 -9.24095 -60.4184
rradius 85.6265
rwrist 7.78688
rhand -10.2655 86.2201
rfingers 7.12502
rthumb 15.7279 56.8392
lclavicle 1.101e-014 -1.08027e-014
lhumerus -17.9536 7.11573 59.3094
lradius 112.947
lwrist 26.1073
lhand 5.38305 47.1135
lfingers 7.12502
lthumb 30.7353 74.5651
rfemur -4.37408 -0.64596 29.6181
rtibia 28.8382
rfoot -10.648 4.34037
rtoes -14.6445
lfemur -39.3313 9.79909 -12.9252
ltibia 58.5778
lfoot -25.6283 5.13022
ltoes -31.7781
332
root 19.6731 15.7169 1.01971 -197.379 -64.3629 206.582
lowerback 8.17917 -0.282735 8.00008
upperback -5.83886 0.824898 4.29859
thorax -10.903 -0.116407 0.046292
lowerneck -6.7314 2.4892 -5.26185
upperneck 10.1157 2.84002 9.13084
head 3.89266 1.64283 3.80906
rclavicle 2.32951e-015 -3.35946e-014
rhumerus -44.371 -8.39104 -62.851
rradius 84.5977
rwrist 7.82003
rhand -10.3089 86.1333
rfingers 7.12502
rthumb 15.6861 56.7491
lclavicle 2.32951e-015 -3.35946e-014
lhumerus -18.0182 8.97038 58.698
lradius 112.793
lwrist 25.6311
lhand 5.87408 47.0464
lfingers 7.12502
lthumb 31.2033 74.4089
rfemur -4.0147 -2.23916 29.9877
rtibia 29.0631
rfoot -10.5644 5.06088
rtoes -14.2077
lfemur -38.5461 9.08954 -12.0417
ltibia 59.5583
lfoot -25.4191 4.11478
ltoes -33.3804
333
root 19.6452 15.692 1.0341 -198.007 -63.6648 207.144
lowerback 8.33625 -0.264139 7.98709
upperback -5.7372 0.884713 4.93794
thorax -10.8935 -0.0699277 0.739567
lowerneck -7.08007 2.613 -5.42358
upperneck 10.474 3.06486 8.76252
head 4.04661 1.74076 3.7461
rclavicle 2.07357e-014 -2.78299e-015
rhumerus -44.0861 -7.36111 -65.3002
rradius 83.6386
rwrist 7.53868
rhand -10.4844 85.9044
rfingers 7.12502
rthumb 15.5171 56.507
lclavicle 2.07357e-014 -2.78299e-015
lhumerus -18.2162 9.86739 58.1246
lradius 112.595
lwrist 25.3759
lhand 6.84766 47.3123
lfingers 7.12502
lthumb 32.1307 74.492
rfemur -3.98695 -2.71427 30.2604
rtibia 29.4175
rfoot -10.3563 5.20118
rtoes -13.8645
lfemur -37.5607 8.63479 -11.3596
ltibia 59.9396
lfoot -25.1119 2.29737
ltoes -32.1013
334
root 19.5849 15.682 1.05107 -198.328 -62.9792 207.306
lowerback 8.23624 -0.133401 8.04606
upperback -5.76734 1.06597 5.35582
thorax -10.8693 0.0182332 1.13318
lowerneck -6.81782 2.56424 -5.44856
upperneck 11.0293 2.98674 8.44801
head 4.18127 1.67742 3.65481
rclavicle -8.74653e-015 2.66371e-014
rhumerus -44.5712 -6.00663 -67.9663
rradius 82.5014
rwrist 6.97793
rhand -10.6444 85.3321
rfingers 7.12502
rthumb 15.3631 55.9228
lclavicle -8.74653e-015 2.66371e-014
lhumerus -18.4465 10.2391 57.5633
lradius 112.379
lwrist 25.2922
lhand 7.70779 47.7673
lfingers 7.12502
lthumb 32.9492 74.7782
rfemur -3.83296 -2.6106 30.3559
rtibia 29.8504
rfoot -10.1361 4.95893
rtoes -13.4321
lfemur -36.0989 7.56744 -10.8072
ltibia 59.4811
lfoot -25.1079 0.599038
ltoes -28.7368
335
root 19.5263 15.6819 1.06829 -198.071 -62.6274 207.28
lowerback 7.64556 0.00338607 7.62211
upperback -5.87467 1.1403 5.89599
thorax -10.6479 0.095682 1.94322
lowerneck -6.69837 2.50445 -5.57051
upperneck 11.5821 2.92623 8.0454
head 4.33841 1.61628 3.55572
rclavicle -5.96851e-014 -3.77691e-014
rhumerus -44.9482 -3.77308 -70.7123
rradius 81.0501
rwrist 6.12423
rhand -10.5122 84.0891
rfingers 7.12502
rthumb 15.4904 54.6897
lclavicle -5.96851e-014 -3.77691e-014
lhumerus -18.581 10.6892 57.456
lradius 112.003
lwrist 25.0342
lhand 8.53793 47.9019
lfingers 7.12502
lthumb 33.7383 74.7434
rfemur -4.21221 -2.14814 30.4074
rtibia 30.4393
rfoot -9.88686 3.82481
rtoes -13.7797
lfemur -35.0168 5.88277 -10.4094
ltibia 58.2389
lfoot -26.1459 0.479909
ltoes -27.4172
336
root 19.4542 15.6992 1.09634 -197.339 -62.1863 206.558
lowerback 7.19089 0.146398 7.2141
upperback -5.93984 1.23659 6.217
thorax -10.458 0.178388 2.50159
lowerneck -6.51476 2.48879 -5.53693
upperneck 12.0032 2.90303 7.71688
head 4.44362 1.58071 3.4516
rclavicle -5.27028e-014 -2.38542e-015
rhumerus -45.3716 -1.07512 -73.9927
rradius 79.3045
rwrist 5.44235
rhand -10.0546 82.1019
rfingers 7.12502
rthumb 15.9311 52.7371
lclavicle -5.27028e-014 -2.38542e-015
lhumerus -18.6521 11.0563 57.3159
lradius 111.391
lwrist 24.5603
lhand 10.1274 48.0386
lfingers 7.12502
lthumb 35.2471 74.5366
rfemur -4.87937 -1.4164 30.0959
rtibia 31.8939
rfoot -9.88782 2.40099
rtoes -15.5015
lfemur -33.5859 4.38207 -10.3708
ltibia 56.4695
lfoot -27.2851 0.941204
ltoes -25.3934
337
root 19.338 15.7104 1.14877 -197.066 -61.334 204.782
lowerback 7.78128 0.314381 7.10011
upperback -5.49065 1.5001 6.26184
thorax -10.3088 0.330038 2.55675
lowerneck -6.23128 2.37541 -5.43268
upperneck 12.4189 2.75135 7.25026
head 4.54286 1.47344 3.28434
rclavicle -6.90777e-015 -2.78299e-014
rhumerus -45.6029 1.24091 -77.5376
rradius 76.9574
rwrist 5.48582
rhand -9.7786 79.9287
rfingers 7.12502
rthumb 16.1968 50.5853
lclavicle -6.90777e-015 -2.78299e-014
lhumerus -18.5517 11.3641 57.2342
lradius 110.826
lwrist 23.9949
lhand 12.5969 48.6424
lfingers 7.12502
lthumb 37.585 74.5534
rfemur -4.53957 -1.02159 28.9754
rtibia 34.2826
rfoot -9.32163 2.2691
rtoes -15.7224
lfemur -30.1029 3.37408 -11.0862
ltibia 54.5095
lfoot -28.9122 0.951769
ltoes -25.1635
338
root 19.3253 15.7118 1.19056 -193.923 -61.4862 202.863
lowerback 6.66457 0.449083 5.76191
upperback -6.02233 1.43626 6.35069
thorax -10.2571 0.389565 3.42024
lowerneck -5.81525 2.23927 -5.47795
upperneck 12.4653 2.58185 6.94679
head 4.50248 1.36037 3.18249
rclavicle 7.0817e-014 2.78299e-014
rhumerus -45.3656 3.77574 -81.1475
rradius 74.0125
rwrist 5.69988
rhand -9.40657 77.4225
rfingers 7.12502
rthumb 16.555 48.1087
lclavicle 7.0817e-014 2.78299e-014
lhumerus -18.0546 11.7651 57.3327
lradius 110.454
lwrist 23.3307
lhand 14.5899 49.334
lfingers 7.12502
lthumb 39.4655 74.719
rfemur -8.54858 -1.05253 28.0396
rtibia 38.3488
rfoot -7.08373 1.89459
rtoes -11.5454
lfemur -30.6351 3.31487 -12.1386
ltibia 52.7478
lfoot -29.2189 0.459541
ltoes -25.2643
339
root 19.2699 15.7347 1.24441 -191.445 -60.8182 199.889
lowerback 6.84085 0.650446 4.86413
upperback -5.94482 1.62735 6.03059
thorax -10.2847 0.549566 3.5388
lowerneck -5.55206 2.16245 -5.54085
upperneck 12.4583 2.45414 7.0373
head 4.46146 1.29276 3.21018
rclavicle 2.76311e-014 3.73715e-014
rhumerus -44.7986 6.89538 -85.3018
rradius 70.9812
rwrist 5.60837
rhand -8.78892 73.9778
rfingers 7.12502
rthumb 17.1496 44.7147
lclavicle 2.76311e-014 3.73715e-014
lhumerus -17.0359 12.2014 57.1456
lradius 110.222
lwrist 22.7696
lhand 15.8282 50.2869
lfingers 7.12502
lthumb 40.6307 75.3195
rfemur -11.5844 -1.91089 26.3178
rtibia 43.5008
rfoot -4.36177 2.36127
rtoes -9.75694
lfemur -29.0983 2.87528 -13.6819
ltibia 51.0166
lfoot -29.5482 1.38419
ltoes -24.9291
340
root 19.2885 15.7074 1.30171 -187.984 -60.6737 194.755
lowerback 8.60502 0.77018 2.38596
upperback -5.65548 1.64052 5.43236
thorax -11.0619 0.754783 4.27685
lowerneck -5.56895 2.02786 -5.78658
upperneck 12.3964 2.27268 7.2627
head 4.45044 1.20564 3.31151
rclavicle -2.20154e-014 -6.99722e-014
rhumerus -43.7798 10.0884 -89.3901
rradius 67.9846
rwrist 5.2684
rhand -7.96365 69.5753
rfingers 7.12502
rthumb 17.9438 40.383
lclavicle -2.20154e-014 -6.99722e-014
lhumerus -17.6952 12.3861 56.9207
lradius 109.708
lwrist 22.6394
lhand 15.9216 48.5513
lfingers 7.12502
lthumb 40.7184 73.5565
rfemur -14.8114 -2.49665 23.6821
rtibia 49.7706
rfoot -2.06149 1.7983
rtoes -6.88617
lfemur -27.2695 2.38958 -16.4593
ltibia 49.5065
lfoot -29.1509 2.1722
ltoes -24.6302
341
root 19.2906 15.6846 1.34657 -183.519 -60.4598 188.523
lowerback 9.8611 1.01448 -0.571419
upperback -5.19457 1.6025 4.60097
thorax -11.3537 0.964828 5.03948
lowerneck -5.56513 1.80966 -6.0165
upperneck 11.9995 2.01171 7.3958
head 4.34259 1.0789 3.37188
rclavicle 3.50855e-014 6.52014e-014
rhumerus -42.3599 12.9952 -93.2885
rradius 64.8923
rwrist 4.97076
rhand -8.78102 68.4341
rfingers 7.12502
rthumb 17.1572 39.1716
lclavicle 3.50855e-014 6.52014e-014
lhumerus -15.2421 12.7415 56.924
lradius 109.125
lwrist 22.4325
lhand 16.0705 49.6264
lfingers 7.12502
lthumb 40.8584 74.5876
rfemur -18.1553 -2.95266 20.4962
rtibia 56.0464
rfoot 0.0803408 0.98129
rtoes -5.07945
lfemur -25.3396 2.3572 -19.9037
ltibia 47.9234
lfoot -28.8228 2.79118
ltoes -24.571
